# xmcd
# 
# Track frame offsets:
#     187
#     22237
#     48825
#     67787
#     91500
#     129975
#     150862
#     175030
# 
# Disc length: 2383
# 
# Revision: 15
# Processed by: cddbd v1.5.2PL0 Copyright (c) Steve Scherf et al.
# Submitted via: fre:ac v1.0.31
# 
DISCID=4d094d08
DTITLE=Yngwie J. Malmsteen - Rising Force
DYEAR=1984
DGENRE=Hard Rock
TTITLE0=Black Star
TTITLE1=Far Beyond the Sun
TTITLE2=Now Your Ships Are Burned
TTITLE3=Evil Eye
TTITLE4=Icarus' Dream Suite Op.4
TTITLE5=As Above, So Below
TTITLE6=Little Savage
TTITLE7=Farewell
EXTD=YEAR: 1984
EXTT0=
EXTT1=
EXTT2=
EXTT3=
EXTT4=
EXTT5=
EXTT6=
EXTT7=
PLAYORDER=
